<?xml version="1.0" standalone="no"?>
   <!DOCTYPE svg PUBLIC "-//W3C//DTD SVG 1.1//EN" 
   "http://www.w3.org/Graphics/SVG/1.1/DTD/svg11.dtd"><svg id="svg" version="1.1" width="2433" height="2682" xmlns="http://www.w3.org/2000/svg"><path d="M2084.468 231.893 C 2074.036 237.334,2046.600 253.720,2023.500 268.307 C 1934.634 324.420,1884.018 353.575,1803.000 395.315 C 1779.075 407.641,1752.075 421.830,1743.000 426.845 C 1733.925 431.860,1713.675 442.647,1698.000 450.816 C 1682.325 458.985,1661.400 470.432,1651.500 476.253 C 1634.157 486.452,1624.523 492.569,1569.000 528.637 C 1554.975 537.748,1526.151 554.987,1504.947 566.947 C 1441.291 602.852,1417.628 619.930,1359.812 671.694 C 1332.244 696.376,1321.960 710.967,1314.011 736.678 C 1280.812 844.057,1252.091 918.913,1217.393 988.500 C 1204.229 1014.900,1189.904 1042.169,1185.560 1049.098 C 1176.772 1063.115,1169.416 1066.701,1128.212 1077.051 C 1090.504 1086.522,1079.405 1093.207,1073.564 1109.962 C 1070.948 1117.467,1071.373 1120.570,1075.939 1127.301 C 1083.161 1137.949,1083.819 1179.467,1076.875 1186.410 C 1071.236 1192.050,1030.624 1206.386,1025.405 1204.579 C 1023.257 1203.835,1006.650 1201.892,988.500 1200.261 C 950.275 1196.826,918.518 1187.925,906.747 1177.345 C 902.211 1173.268,894.450 1166.687,889.500 1162.721 C 884.550 1158.755,881.317 1154.691,882.316 1153.689 C 883.315 1152.687,892.662 1153.857,903.087 1156.289 C 921.341 1160.547,928.714 1160.201,925.641 1155.228 C 924.840 1153.932,913.913 1149.125,901.360 1144.546 C 854.296 1127.381,833.686 1112.018,821.013 1084.652 C 817.995 1078.135,810.947 1065.905,805.351 1057.473 C 791.837 1037.114,782.472 1015.323,772.932 982.042 C 763.329 948.539,760.363 927.939,755.938 864.000 C 749.709 774.003,746.549 752.485,738.250 743.578 C 734.927 740.010,732.952 735.887,733.862 734.414 C 734.772 732.942,734.027 729.942,732.207 727.749 C 730.386 725.555,729.739 721.564,730.769 718.880 C 731.799 716.196,731.231 714.000,729.506 714.000 C 725.634 714.000,726.403 698.286,730.416 695.411 C 732.037 694.250,730.704 692.375,727.416 691.189 C 724.162 690.015,715.575 685.654,708.333 681.498 C 696.085 674.469,695.627 673.770,701.776 671.496 C 709.943 668.474,707.915 664.915,692.468 655.164 C 681.402 648.178,680.869 647.257,685.807 643.646 C 690.721 640.053,690.142 639.195,678.957 633.488 C 666.094 626.926,660.945 619.624,666.682 616.079 C 670.977 613.424,661.717 609.506,650.452 609.211 C 637.195 608.864,634.963 591.000,648.177 591.000 C 651.380 591.000,654.000 589.650,654.000 588.000 C 654.000 586.350,650.963 584.979,647.250 584.954 C 632.919 584.857,632.226 579.797,646.256 577.693 C 666.271 574.692,660.009 569.714,638.836 571.796 C 618.965 573.749,617.577 572.136,625.712 556.534 C 630.082 548.153,630.004 547.259,624.515 542.814 C 621.286 540.199,618.155 535.518,617.556 532.411 C 616.958 529.305,613.208 525.993,609.222 525.052 C 602.272 523.412,602.580 522.825,616.738 510.690 C 624.857 503.732,633.783 498.030,636.573 498.019 C 639.363 498.009,642.386 496.803,643.290 495.340 C 644.194 493.877,649.812 491.765,655.773 490.647 C 661.735 489.528,665.820 487.820,664.850 486.850 C 663.880 485.880,654.402 487.437,643.787 490.310 C 620.200 496.695,608.204 495.457,624.000 488.268 C 634.043 483.698,634.155 483.479,626.587 483.245 C 622.094 483.106,611.903 487.657,603.011 493.773 C 590.364 502.474,559.628 516.000,552.507 516.000 C 551.653 516.000,554.125 512.625,558.000 508.500 C 564.666 501.404,564.726 501.000,559.114 501.000 C 555.851 501.000,547.516 505.167,540.591 510.260 C 529.023 518.767,523.181 519.019,531.550 510.650 C 537.234 504.966,532.957 503.847,523.770 508.613 C 513.113 514.142,512.797 514.111,515.036 507.750 C 516.487 503.625,516.067 503.253,513.076 506.016 C 510.982 507.949,507.491 508.849,505.319 508.015 C 502.876 507.078,498.430 512.030,493.661 521.000 L 485.953 535.500 486.281 525.000 C 486.461 519.225,486.471 512.813,486.304 510.750 C 485.118 496.118,464.185 526.199,457.444 552.222 C 451.214 576.271,445.038 586.925,435.178 590.633 C 430.955 592.222,401.850 597.146,370.500 601.577 C 287.929 613.246,220.625 628.280,204.360 638.687 C 196.926 643.444,227.025 647.497,285.000 649.546 C 323.851 650.920,346.800 653.164,361.500 657.029 C 380.046 661.905,460.943 674.894,502.521 679.673 C 539.138 683.881,572.858 697.239,590.815 714.649 C 615.001 738.099,634.988 781.101,648.383 838.500 C 650.308 846.750,659.258 875.100,668.272 901.500 C 677.286 927.900,686.501 956.250,688.749 964.500 C 699.130 1002.593,726.656 1087.420,745.607 1139.718 C 771.172 1210.266,789.875 1243.144,835.252 1297.301 C 843.638 1307.310,856.575 1323.569,864.000 1333.431 C 884.232 1360.304,888.183 1365.158,916.755 1398.255 C 926.046 1409.016,948.277 1428.802,958.271 1435.203 C 963.096 1438.293,977.271 1451.136,989.771 1463.742 C 1002.272 1476.348,1022.664 1494.239,1035.088 1503.501 C 1061.343 1523.074,1085.522 1548.522,1105.003 1577.085 C 1111.139 1586.082,1114.241 1595.411,1116.149 1610.603 C 1119.120 1634.264,1130.384 1665.635,1153.636 1715.009 C 1162.316 1733.438,1170.385 1753.013,1171.569 1758.509 C 1172.752 1764.004,1177.739 1777.275,1182.651 1788.000 C 1187.563 1798.725,1197.617 1832.475,1204.993 1863.000 C 1218.298 1918.063,1218.388 1918.795,1216.435 1956.000 C 1214.233 1997.921,1207.048 2031.443,1180.747 2122.500 C 1164.343 2179.292,1125.908 2294.093,1118.937 2307.118 C 1116.920 2310.886,1113.547 2322.188,1111.440 2332.234 C 1109.333 2342.280,1104.097 2358.430,1099.804 2368.123 C 1095.512 2377.816,1092.000 2388.228,1092.000 2391.261 C 1092.000 2394.294,1089.406 2403.913,1086.236 2412.637 C 1078.587 2433.689,1075.697 2452.841,1079.788 2455.369 C 1081.650 2456.519,1083.000 2454.904,1083.000 2451.527 C 1083.000 2448.223,1085.598 2445.020,1089.000 2444.131 C 1092.366 2443.251,1095.000 2440.039,1095.000 2436.815 C 1095.000 2430.997,1102.220 2406.509,1107.182 2395.500 C 1108.669 2392.200,1114.043 2378.025,1119.125 2364.000 C 1124.207 2349.975,1129.610 2337.240,1131.133 2335.700 C 1139.881 2326.848,1139.842 2350.724,1131.050 2385.962 C 1125.517 2408.142,1125.037 2413.847,1128.088 2421.212 C 1131.636 2429.778,1138.402 2434.145,1135.201 2425.803 C 1134.316 2423.495,1135.033 2420.716,1136.795 2419.626 C 1138.558 2418.537,1140.000 2413.111,1140.000 2407.568 C 1140.000 2392.574,1142.718 2387.031,1147.944 2391.369 C 1153.627 2396.085,1161.757 2386.002,1159.127 2377.500 C 1151.650 2353.332,1159.072 2294.053,1171.214 2280.959 C 1178.023 2273.615,1178.773 2273.495,1198.593 2276.581 C 1209.801 2278.326,1219.840 2279.217,1220.901 2278.561 C 1221.963 2277.905,1228.157 2278.594,1234.666 2280.092 C 1248.407 2283.254,1257.000 2281.409,1257.000 2275.298 C 1257.000 2270.068,1263.472 2269.672,1268.400 2274.600 C 1270.947 2277.147,1272.000 2277.210,1272.000 2274.814 C 1272.000 2270.359,1263.531 2262.000,1259.016 2262.000 C 1254.808 2262.000,1247.933 2241.613,1248.157 2229.797 L 1248.315 2221.500 1253.023 2228.250 C 1260.371 2238.783,1263.000 2236.337,1263.000 2218.971 C 1263.000 2210.155,1263.882 2186.530,1264.961 2166.471 C 1266.536 2137.182,1267.795 2130.000,1271.355 2130.000 C 1278.770 2130.000,1330.359 2111.488,1332.541 2108.044 C 1333.663 2106.273,1333.278 2102.388,1331.685 2099.412 C 1329.240 2094.843,1330.001 2094.000,1336.571 2094.000 C 1340.996 2094.000,1343.554 2092.706,1342.500 2091.000 C 1339.200 2085.661,1326.915 2087.800,1309.009 2096.831 C 1299.379 2101.687,1286.572 2106.537,1280.549 2107.608 C 1270.328 2109.426,1269.474 2108.988,1267.731 2101.028 C 1263.858 2083.337,1293.214 1951.518,1309.716 1912.500 C 1312.508 1905.900,1316.708 1891.324,1319.049 1880.109 L 1323.307 1859.717 1311.038 1833.083 C 1289.731 1786.829,1267.982 1723.934,1264.561 1698.683 L 1262.419 1682.867 1279.512 1689.262 C 1292.818 1694.240,1304.018 1695.751,1330.053 1696.079 C 1363.264 1696.497,1363.623 1696.426,1380.997 1686.000 C 1393.236 1678.656,1396.842 1675.222,1392.997 1674.574 C 1379.858 1672.362,1379.352 1671.342,1386.395 1661.262 C 1403.851 1636.278,1412.091 1635.494,1440.449 1656.119 C 1465.151 1674.086,1473.029 1677.444,1484.905 1675.069 C 1490.908 1673.868,1500.215 1675.850,1513.438 1681.144 C 1535.906 1690.138,1542.000 1690.854,1542.000 1684.500 C 1542.000 1678.683,1543.322 1678.795,1562.996 1686.273 C 1573.610 1690.307,1583.103 1691.957,1589.618 1690.900 C 1596.432 1689.794,1603.502 1691.175,1611.241 1695.123 C 1620.714 1699.956,1624.080 1700.379,1630.339 1697.527 C 1636.424 1694.755,1640.483 1695.065,1650.719 1699.086 C 1662.346 1703.654,1663.813 1703.679,1666.969 1699.365 C 1669.537 1695.854,1673.148 1695.131,1680.875 1696.581 C 1687.244 1697.776,1692.101 1697.264,1693.333 1695.269 C 1694.445 1693.471,1698.500 1692.000,1702.345 1692.000 C 1706.190 1692.000,1712.229 1689.638,1715.765 1686.750 C 1720.918 1682.542,1721.802 1679.559,1720.217 1671.723 C 1718.578 1663.619,1715.224 1660.339,1700.620 1652.555 C 1690.929 1647.390,1683.000 1642.096,1683.000 1640.791 C 1683.000 1635.838,1697.100 1636.460,1712.383 1642.087 C 1734.166 1650.107,1736.498 1646.651,1724.975 1623.426 C 1717.952 1609.271,1716.198 1602.497,1717.608 1594.981 C 1718.931 1587.926,1718.111 1583.997,1714.729 1581.190 C 1712.128 1579.032,1710.000 1575.372,1710.000 1573.058 C 1710.000 1568.298,1698.152 1563.000,1687.505 1563.000 C 1681.543 1563.000,1680.443 1561.542,1680.659 1553.931 C 1680.987 1542.394,1670.308 1530.705,1657.192 1528.244 C 1650.687 1527.024,1640.409 1528.705,1626.922 1533.195 C 1610.562 1538.641,1600.533 1539.903,1576.500 1539.536 C 1541.122 1538.997,1469.782 1527.038,1454.488 1519.084 C 1448.583 1516.013,1434.850 1509.450,1423.971 1504.500 C 1413.092 1499.550,1403.373 1493.110,1402.374 1490.188 C 1401.374 1487.267,1394.244 1481.562,1386.528 1477.510 C 1378.813 1473.459,1370.138 1468.276,1367.250 1465.992 C 1356.727 1457.667,1363.476 1450.561,1377.000 1455.725 C 1401.998 1465.269,1447.123 1473.809,1477.500 1474.745 C 1495.650 1475.304,1519.447 1476.611,1530.382 1477.648 C 1545.157 1479.050,1552.477 1478.384,1558.882 1475.053 C 1569.599 1469.478,1579.665 1458.629,1582.357 1449.750 C 1583.483 1446.038,1586.164 1443.000,1588.316 1443.000 C 1590.740 1443.000,1592.978 1437.341,1594.202 1428.114 L 1596.176 1413.228 1612.776 1413.427 C 1621.905 1413.536,1629.962 1413.038,1630.680 1412.320 C 1631.399 1411.601,1632.867 1402.581,1633.945 1392.274 L 1635.903 1373.534 1642.711 1382.017 L 1649.518 1390.500 1652.685 1382.250 C 1654.954 1376.337,1657.947 1374.000,1663.249 1374.000 C 1667.317 1374.000,1671.544 1372.547,1672.642 1370.770 C 1676.374 1364.732,1676.000 1345.530,1671.993 1337.399 C 1669.797 1332.943,1668.004 1328.893,1668.010 1328.399 C 1668.015 1327.905,1673.919 1327.469,1681.131 1327.432 C 1700.763 1327.330,1704.603 1322.696,1702.255 1301.940 C 1700.971 1290.592,1701.446 1284.079,1703.657 1282.712 C 1708.363 1279.803,1707.810 1273.238,1702.402 1267.831 C 1698.684 1264.112,1698.498 1262.122,1701.430 1257.426 C 1704.550 1252.430,1703.832 1250.557,1696.278 1243.992 C 1689.039 1237.701,1688.079 1235.412,1690.804 1230.932 C 1692.778 1227.686,1698.453 1225.129,1704.903 1224.578 C 1715.012 1223.714,1716.096 1222.592,1721.967 1206.899 C 1727.603 1191.836,1729.250 1174.515,1727.187 1152.000 C 1726.637 1146.000,1728.000 1144.332,1734.000 1143.660 C 1750.486 1141.814,1755.080 1139.547,1759.445 1131.106 C 1765.456 1119.483,1765.207 1110.976,1758.750 1107.351 C 1753.793 1104.568,1753.807 1104.285,1759.005 1102.283 C 1763.474 1100.561,1764.140 1098.188,1762.543 1089.676 C 1760.813 1080.454,1761.235 1079.403,1766.038 1080.964 C 1795.799 1090.634,1797.335 1090.740,1803.168 1083.537 C 1807.583 1078.085,1808.113 1075.057,1805.741 1068.819 C 1804.099 1064.499,1803.461 1059.125,1804.325 1056.875 C 1805.188 1054.626,1803.219 1045.746,1799.949 1037.143 C 1796.678 1028.539,1794.002 1021.270,1794.002 1020.988 C 1793.995 1018.950,1815.649 1015.916,1824.956 1016.651 C 1832.658 1017.260,1838.312 1015.838,1842.206 1012.313 C 1849.141 1006.037,1849.446 1002.571,1843.629 996.142 C 1841.225 993.486,1838.093 981.562,1836.670 969.645 L 1834.082 947.977 1844.791 942.739 C 1855.163 937.665,1855.500 936.973,1855.500 920.774 C 1855.500 911.574,1857.110 902.079,1859.078 899.673 C 1861.046 897.268,1862.944 888.595,1863.295 880.400 C 1863.646 872.205,1865.349 862.800,1867.079 859.500 C 1868.809 856.200,1871.001 847.425,1871.949 840.000 C 1873.225 830.005,1874.819 826.839,1878.086 827.806 C 1880.514 828.524,1895.053 829.657,1910.395 830.322 L 1938.289 831.532 1948.443 820.766 C 1955.689 813.083,1961.162 810.000,1967.553 810.000 C 1979.527 810.000,1986.000 807.256,1986.000 802.179 C 1986.000 799.881,1987.927 798.000,1990.282 798.000 C 1992.636 798.000,1998.374 793.521,2003.032 788.046 C 2007.706 782.552,2017.908 775.711,2025.802 772.778 C 2040.823 767.197,2050.198 757.235,2059.704 736.752 C 2062.703 730.290,2072.168 718.140,2080.736 709.752 C 2099.167 691.709,2109.718 672.381,2108.424 659.029 C 2107.654 651.088,2105.127 648.250,2093.259 642.000 C 2085.426 637.875,2079.013 633.746,2079.009 632.824 C 2078.995 630.262,2121.715 618.000,2130.654 618.000 C 2147.338 618.000,2177.819 585.661,2177.951 567.819 C 2177.979 564.025,2174.865 559.084,2170.744 556.384 C 2163.850 551.867,2106.304 543.304,2081.427 543.094 C 2065.957 542.963,2064.729 538.280,2078.345 531.334 C 2084.701 528.092,2091.609 523.381,2093.696 520.866 C 2095.783 518.352,2103.491 515.394,2110.825 514.294 C 2118.159 513.195,2128.511 509.083,2133.830 505.157 C 2139.148 501.232,2149.575 495.104,2157.000 491.540 C 2179.528 480.727,2202.189 464.336,2206.717 455.580 C 2211.726 445.895,2212.422 424.233,2207.816 421.386 C 2205.940 420.227,2209.757 414.687,2217.110 407.898 C 2224.624 400.961,2228.718 394.971,2227.401 392.840 C 2224.665 388.413,2194.146 391.089,2154.420 399.239 C 2118.814 406.544,2111.475 406.269,2134.500 398.493 C 2144.400 395.150,2153.175 391.534,2154.000 390.457 C 2154.825 389.381,2163.015 384.810,2172.199 380.301 C 2187.798 372.642,2211.000 353.062,2211.000 347.557 C 2211.000 337.956,2179.395 342.787,2088.976 366.208 C 2063.937 372.694,2041.095 378.000,2038.214 378.000 C 2035.333 378.000,2051.151 368.808,2073.364 357.574 C 2127.472 330.210,2146.847 317.022,2154.246 302.517 C 2157.536 296.070,2159.509 289.632,2158.631 288.212 C 2155.286 282.799,2122.260 293.652,2046.548 325.046 C 2009.338 340.475,1989.000 347.243,1989.000 344.197 C 1989.000 342.138,2000.040 330.000,2001.913 330.000 C 2004.438 330.000,2052.322 299.457,2060.720 292.490 C 2083.832 273.317,2091.993 264.576,2102.887 247.326 C 2109.549 236.778,2115.000 226.764,2115.000 225.074 C 2115.000 219.382,2103.555 221.938,2084.468 231.893 M1222.070 1676.250 C 1243.716 1718.484,1248.789 1730.372,1263.357 1773.000 L 1279.248 1819.500 1279.112 1869.000 C 1278.991 1912.964,1277.893 1923.634,1269.300 1964.403 C 1263.978 1989.649,1254.821 2026.099,1248.950 2045.403 C 1243.079 2064.706,1236.302 2088.600,1233.890 2098.500 C 1231.479 2108.400,1226.192 2126.048,1222.143 2137.718 C 1218.093 2149.387,1215.609 2161.096,1216.622 2163.737 C 1217.636 2166.378,1216.187 2177.080,1213.403 2187.519 C 1210.619 2197.959,1207.869 2213.925,1207.292 2223.000 C 1206.715 2232.075,1205.064 2243.550,1203.623 2248.500 C 1201.207 2256.799,1200.088 2257.418,1189.251 2256.444 C 1172.928 2254.977,1172.053 2253.958,1174.129 2238.813 C 1178.169 2209.337,1231.959 2032.846,1244.620 2007.527 C 1247.652 2001.462,1252.461 1986.375,1255.306 1974.000 L 1260.480 1951.500 1252.473 1929.396 C 1242.867 1902.880,1226.026 1843.917,1221.512 1821.000 C 1208.972 1757.328,1203.199 1662.000,1211.883 1662.000 C 1213.469 1662.000,1218.053 1668.413,1222.070 1676.250 M1247.598 2212.350 C 1246.109 2213.983,1245.171 2207.579,1245.401 2197.350 L 1245.802 2179.500 1247.999 2194.500 C 1249.208 2202.750,1249.028 2210.783,1247.598 2212.350 M1233.117 2231.354 C 1234.558 2242.824,1236.133 2254.074,1236.618 2256.354 C 1237.214 2259.157,1234.584 2260.500,1228.500 2260.500 L 1219.500 2260.500 1220.342 2244.000 C 1221.196 2227.269,1226.396 2206.396,1229.048 2209.048 C 1229.846 2209.846,1231.677 2219.883,1233.117 2231.354 " stroke="none" fill="black" fill-rule="evenodd"/></svg>