<?xml version="1.0" standalone="no"?>
<!DOCTYPE svg PUBLIC "-//W3C//DTD SVG 20010904//EN"
 "http://www.w3.org/TR/2001/REC-SVG-20010904/DTD/svg10.dtd">
<svg version="1.0" xmlns="http://www.w3.org/2000/svg"
 width="1280.000000pt" height="1260.000000pt" viewBox="0 0 1280.000000 1260.000000"
 preserveAspectRatio="xMidYMid meet">
<metadata>
Created by potrace 1.15, written by Peter Selinger 2001-2017
</metadata>
<g transform="translate(0.000000,1260.000000) scale(0.100000,-0.100000)"
fill="#000000" stroke="none">
<path d="M2741 12584 c-139 -37 -254 -138 -325 -286 -81 -169 -92 -270 -68
-648 39 -633 18 -1876 -43 -2470 -30 -290 -54 -401 -134 -618 -67 -181 -99
-441 -81 -652 21 -250 94 -465 215 -635 68 -96 178 -193 355 -315 200 -137
580 -413 576 -417 -1 -2 -50 15 -108 36 -582 219 -1252 267 -1648 118 -136
-52 -190 -93 -286 -223 -187 -253 -338 -355 -504 -341 l-67 6 36 -87 c34 -82
36 -94 36 -197 0 -101 -2 -114 -27 -156 -56 -95 -157 -159 -312 -199 -44 -11
-96 -20 -118 -20 -43 0 -47 -10 -19 -48 37 -54 91 -173 112 -249 28 -101 23
-258 -10 -344 -45 -118 -137 -235 -248 -317 -52 -38 -61 -48 -46 -54 10 -3 56
-19 103 -33 241 -77 401 -210 451 -377 27 -88 23 -234 -9 -315 l-20 -52 27 -5
c14 -3 46 -8 71 -11 119 -17 269 -73 325 -122 40 -35 74 -89 85 -136 24 -91
-22 -227 -123 -363 -50 -68 -50 -72 12 -137 54 -58 104 -80 191 -85 168 -9
356 77 620 285 52 42 230 211 395 378 305 307 405 397 581 523 296 210 707
411 987 482 153 38 601 110 612 98 2 -2 -41 -41 -96 -88 -168 -145 -300 -321
-345 -458 -26 -77 -25 -176 1 -221 82 -138 311 -69 529 159 75 79 226 287 226
312 0 4 5 8 10 8 13 0 13 -331 0 -515 -24 -324 -141 -714 -327 -1086 -113
-227 -242 -422 -440 -669 -244 -304 -382 -513 -469 -710 -65 -149 -87 -243
-82 -359 3 -85 7 -103 34 -151 32 -57 97 -115 140 -126 20 -5 35 4 83 49 111
106 230 167 325 167 59 0 135 -39 185 -96 50 -56 109 -174 142 -284 12 -41 23
-77 25 -79 2 -2 34 10 71 27 245 111 478 35 645 -211 22 -32 62 -104 88 -159
l48 -101 23 44 c64 127 187 259 294 316 164 86 362 84 575 -6 40 -17 73 -31
74 -31 0 0 0 26 -2 58 -2 33 4 101 12 152 34 195 108 294 251 335 72 21 179
16 275 -14 35 -11 66 -19 67 -17 2 2 -4 20 -13 42 -22 53 -15 160 17 239 39
96 95 171 230 310 136 141 163 183 201 323 19 68 22 104 22 307 0 198 -3 247
-22 350 -65 345 -162 624 -328 945 -60 116 -69 139 -46 115 115 -117 352 -367
481 -508 84 -92 183 -190 220 -218 211 -160 523 -239 829 -211 243 23 433 80
649 193 148 78 259 117 503 178 617 156 1891 351 2620 401 196 14 300 38 420
97 128 64 223 156 277 269 38 78 38 81 38 199 -1 112 -3 126 -33 201 -95 238
-344 495 -712 737 -229 150 -533 312 -848 454 -582 261 -1172 399 -1987 465
-210 17 -971 17 -1210 0 -759 -54 -1468 -163 -2168 -333 -92 -23 -170 -39
-173 -36 -3 3 0 15 6 27 6 11 14 39 18 62 7 39 10 41 68 62 68 25 132 67 166
112 20 24 23 40 23 109 0 66 -5 90 -27 137 l-27 58 132 78 c425 255 564 322
847 410 596 186 764 232 851 232 71 0 118 18 147 55 26 33 29 73 6 82 -10 3
-31 0 -48 -7 -92 -38 -285 -102 -569 -186 -175 -53 -380 -120 -454 -150 -241
-96 -528 -246 -805 -420 l-120 -75 -38 33 c-21 18 -39 38 -39 44 -1 6 21 58
48 115 69 147 161 379 220 554 76 225 125 434 166 700 49 328 82 514 106 613
11 46 18 90 15 98 -10 25 -56 16 -87 -17 l-29 -31 1 -132 c1 -144 -10 -224
-97 -748 -61 -372 -82 -447 -219 -787 -132 -326 -142 -346 -162 -343 -10 1
-47 7 -82 12 -72 12 -159 0 -198 -25 -44 -29 -90 -119 -101 -201 -7 -45 -10
-49 -48 -64 -22 -8 -52 -23 -67 -33 -33 -22 -32 -32 -12 164 82 791 86 1742
10 2484 -111 1085 -390 2021 -810 2720 -172 287 -403 615 -583 829 -121 144
-327 344 -447 434 -129 97 -298 185 -409 212 -92 23 -198 25 -275 4z"/>
</g>
</svg>
